<svg id="visual" viewBox="0 0 900 600" width="900" height="600" xmlns="http://www.w3.org/2000/svg" xmlns:xlink="http://www.w3.org/1999/xlink" version="1.1"><rect x="0" y="0" width="900" height="600" fill="#002233"></rect><path d="M0 392L21.5 395.2C43 398.3 86 404.7 128.8 420.8C171.7 437 214.3 463 257.2 481.7C300 500.3 343 511.7 385.8 501.5C428.7 491.3 471.3 459.7 514.2 440.5C557 421.3 600 414.7 642.8 417.3C685.7 420 728.3 432 771.2 438.2C814 444.3 857 444.7 878.5 444.8L900 445L900 601L878.5 601C857 601 814 601 771.2 601C728.3 601 685.7 601 642.8 601C600 601 557 601 514.2 601C471.3 601 428.7 601 385.8 601C343 601 300 601 257.2 601C214.3 601 171.7 601 128.8 601C86 601 43 601 21.5 601L0 601Z" fill="#0066FF" stroke-linecap="round" stroke-linejoin="miter"></path></svg>